<?xml version="1.0" encoding="utf-8"?>
<!-- Generator: Adobe Illustrator 16.0.0, SVG Export Plug-In . SVG Version: 6.00 Build 0)  -->
<!DOCTYPE svg PUBLIC "-//W3C//DTD SVG 1.1//EN" "http://www.w3.org/Graphics/SVG/1.1/DTD/svg11.dtd">
<svg version="1.1" id="Layer_1" xmlns="http://www.w3.org/2000/svg" xmlns:xlink="http://www.w3.org/1999/xlink" x="0px" y="0px"
	 width="808.029px" height="219.893px" viewBox="495.823 260.966 808.029 219.893"
	 enable-background="new 495.823 260.966 808.029 219.893" xml:space="preserve">
<g>
	<path d="M604.891,421.072c0-37.397,0-74.797,0-112.195c187.466,0,374.965,0,562.422,0c-0.993,7.354-4.813,10.972-9.749,13.944
		c-14.019,8.441-34.826,7.781-58.495,7.781c-154.036,0-311.989,0.001-464.594,0c-1.008,43.884,0.336,90.037-0.672,133.922
		c-18.166,4.124-34.43,0.671-44.04-7.458c-4.698-3.976-7.769-10.027-11.094-15.89c-15.945-28.114-32.398-58.008-48.408-85.605
		c0,36.857,0,73.716,0,110.574c-9.861,0-19.722,0-29.583,0c0-52.1,0-104.195,0-156.295c10.415-2.357,27.456-3.577,36.979,1.621
		c8.508,4.645,14.761,15.499,19.833,24.644C572.931,363.946,590.233,396.388,604.891,421.072z"/>
	<path d="M838.869,353.3c0,6.918,0,13.836,0,20.753c-7.454-1.794-15.925-4.036-25.886-4.863c-9.385-0.779-21.985-1.056-25.885,4.215
		c-1.649,2.229-2.538,6.308-1.681,9.404c1.866,6.747,17.395,9.969,25.213,12.646c9.458,3.239,19.995,6.242,26.222,11.35
		c12.643,10.371,12.995,38.885,1.681,50.586c-14.355,14.842-57.223,13.849-79.002,5.188c0-7.134,0-14.268,0-21.401
		c11.787,2.921,29.141,7.229,45.047,5.513c6.136-0.663,11.995-4.758,10.758-12.646c-1.399-8.918-16.913-10.972-26.222-13.943
		c-9.688-3.092-22.529-7.599-27.566-14.268c-8.744-11.577-6.86-35.61,0.336-45.721C774.135,342.901,817.695,343.831,838.869,353.3z"
		/>
	<path d="M944.428,351.68c0,6.917,0,13.835,0,20.753c-10.444-2.657-33.814-7.553-43.367,0.648
		c-6.791,5.83-6.051,21.058-6.051,33.398c0,12.769-1.006,30.451,6.388,36.317c9.989,7.927,33.365,3.217,45.72,0.324
		c-1.856,6.964-3.187,14.437-5.043,21.402c-20.473,6.843-48.969,5.721-64.208-3.892c-13.483-8.506-17.145-29.413-17.145-52.531
		c0-22.598,2.959-43.447,16.136-52.53C892.064,345.088,925.251,344.405,944.428,351.68z"/>
	<path d="M655.99,349.734c28.463,0,56.925,0,85.388,0c0,7.242,0,14.484,0,21.727c-17.817,0-35.634,0-53.451,0
		c-0.784,7.566-0.112,16.536-0.336,24.644c14.792,0.756,31.039,0.108,46.392,0.324c0,7.351,0,14.699,0,22.049
		c-15.352,0-30.704,0-46.056,0c-0.738,8.339-0.245,16.244,2.689,21.078c7.705,12.691,37.753,6.335,51.435,3.566
		c0,6.81,0,13.619,0,20.429c-24.291,8.563-69.342,8.142-80.346-11.35c-6.699-11.864-6.051-29.452-6.051-47.99
		c0-18.103,0-36.99,0-53.503C655.625,350.248,655.598,349.788,655.99,349.734z"/>
	<path d="M993.174,349.734c12.214,0,24.429,0,36.643,0c17.349,34.394,28.513,74.748,38.66,116.087
		c-10.981,0.757-23.42,0.108-34.962,0.324c-1.184-7.613-2.83-14.781-4.371-22.049c-13.783,0-27.565,0-41.348,0
		c-1.826,6.886-3.056,14.348-4.035,22.049c-9.412,0-18.825,0-28.238,0C964.339,423.74,974.778,382.898,993.174,349.734z
		 M992.166,424.639c10.757,0,21.514,0,32.271,0c-4.506-16.406-9.313-32.521-16.809-46.046
		C1001.545,393.045,996.262,408.27,992.166,424.639z"/>
	<path d="M1080.915,349.734c28.575,0,57.15,0,85.726,0c0,7.242,0,14.484,0,21.727c-17.929,0-35.858,0-53.788,0
		c-0.779,7.57-0.115,16.533-0.336,24.644c15.801,0.756,33.057,0.108,49.417,0.324c0,7.351,0,14.699,0,22.049
		c-16.359,0-32.72,0-49.081,0c-0.783,16.106-0.111,33.615-0.336,50.262c-15.614,0.061-30.117-2.063-31.937-15.89
		c-0.994-7.557,0-16.571,0-25.616c0-24.251,0-53.329,0-76.526C1080.55,350.248,1080.524,349.788,1080.915,349.734z"/>
	<path d="M1181.431,349.734c28.574,0,57.149,0,85.725,0c0,7.242,0,14.484,0,21.727c-18.041,0-36.083,0-54.124,0
		c0,8.322,0,16.645,0,24.968c15.465,0,30.929,0,46.393,0c0,7.351,0,14.699,0,22.049c-15.464,0-30.928,0-46.393,0
		c0.341,11.207-0.402,20.288,6.725,24.97c11.148,7.321,35.133,2.242,47.736-0.325c0,6.81,0,13.619,0,20.429
		c-23.205,8.368-64.724,7.693-77.993-8.106c-9.097-10.832-8.405-29.988-8.404-48.314c0.001-19.208-0.001-38.003,0-56.422
		C1181.067,350.248,1181.04,349.788,1181.431,349.734z"/>
	<path fill="#E31D1A" d="M1243.081,260.966c3.479,0,28.414,0,28.414,0s4.35,69.637-54.219,69.637h-26.095
		c0,0,28.495-7.872,34.793-45.306C1229.329,262.289,1241.216,260.966,1243.081,260.966z"/>
	<g>
		<path d="M1303.852,453.458c0,5.764-4.807,10.337-10.911,10.337c-6.105,0-10.975-4.573-10.975-10.337
			c0-5.763,4.869-10.272,11.04-10.272C1299.047,443.186,1303.852,447.696,1303.852,453.458z M1284.694,453.458
			c0,4.574,3.572,8.206,8.313,8.206c4.609,0.063,8.116-3.631,8.116-8.141c0-4.575-3.507-8.271-8.246-8.271
			C1288.266,445.252,1284.694,448.949,1284.694,453.458z M1291.254,458.783h-2.468V448.51c0.974-0.124,2.338-0.314,4.092-0.314
			c2.012,0,2.922,0.314,3.636,0.816c0.648,0.438,1.103,1.189,1.103,2.191c0,1.252-0.974,2.067-2.207,2.442v0.126
			c1.038,0.313,1.559,1.127,1.883,2.506c0.324,1.566,0.585,2.13,0.78,2.505h-2.599c-0.325-0.375-0.52-1.252-0.845-2.505
			c-0.195-1.065-0.845-1.566-2.208-1.566h-1.168L1291.254,458.783L1291.254,458.783z M1291.316,453.022h1.17
			c1.365,0,2.468-0.439,2.468-1.506c0-0.938-0.714-1.565-2.273-1.565c-0.646,0-1.104,0.063-1.364,0.126V453.022L1291.316,453.022z"
			/>
	</g>
</g>
</svg>
